HIERARCHY
ROOT Hips
{
    OFFSET   0.000000   0.000000   0.000000
    CHANNELS 6 Xposition Yposition Zposition Zrotation Xrotation Yrotation
    JOINT Chest
    {
        OFFSET   0.000000   8.007230   0.000000
        CHANNELS 3 Zrotation Xrotation Yrotation
        JOINT Chest2
        {
            OFFSET   0.000000  22.077100   0.000000
            CHANNELS 3 Zrotation Xrotation Yrotation
            JOINT Neck
            {
                OFFSET   0.000000  23.255100   0.000000
                CHANNELS 3 Zrotation Xrotation Yrotation
                JOINT Head
                {
                    OFFSET   0.000000  14.370100   1.956600
                    CHANNELS 3 Zrotation Xrotation Yrotation
                    End Site
                    {
                        OFFSET   0.000000  19.566000   0.000000
                    }
                }
            }
            JOINT LeftCollar
            {
                OFFSET   3.911900  19.017000  -0.467063
                CHANNELS 3 Zrotation Xrotation Yrotation
                JOINT LeftShoulder
                {
                    OFFSET  10.383700   0.000000   0.000000
                    CHANNELS 3 Zrotation Xrotation Yrotation
                    JOINT LeftElbow
                    {
                        OFFSET  26.662100   0.001193   0.000980
                        CHANNELS 3 Zrotation Xrotation Yrotation
                        JOINT LeftWrist
                        {
                            OFFSET  28.869000  -0.000059  -0.000082
                            CHANNELS 3 Zrotation Xrotation Yrotation
                            JOINT LeftFinger0
                            {
                                OFFSET   2.044650  -2.323450   3.252850
                                CHANNELS 3 Zrotation Xrotation Yrotation
                                JOINT LeftFinger01
                                {
                                    OFFSET   3.088130   0.000000   0.000000
                                    CHANNELS 3 Zrotation Xrotation Yrotation
                                    JOINT LeftFinger02
                                    {
                                        OFFSET   2.639460   0.000000   0.000000
                                        CHANNELS 3 Zrotation Xrotation Yrotation
                                        End Site
                                        {
                                            OFFSET   2.582190   0.000000   0.000000
                                        }
                                    }
                                }
                            }
                            JOINT LeftFinger1
                            {
                                OFFSET   8.364480   0.000000   3.252850
                                CHANNELS 3 Zrotation Xrotation Yrotation
                                JOINT LeftFinger11
                                {
                                    OFFSET   4.646930   0.000000   0.000000
                                    CHANNELS 3 Zrotation Xrotation Yrotation
                                    JOINT LeftFinger12
                                    {
                                        OFFSET   2.323470   0.000000   0.000000
                                        CHANNELS 3 Zrotation Xrotation Yrotation
                                        End Site
                                        {
                                            OFFSET   2.273050   0.000000   0.000000
                                        }
                                    }
                                }
                            }
                            JOINT LeftFinger2
                            {
                                OFFSET   8.364490   0.000016   1.078090
                                CHANNELS 3 Zrotation Xrotation Yrotation
                                JOINT LeftFinger21
                                {
                                    OFFSET   5.111610   0.000000   0.000000
                                    CHANNELS 3 Zrotation Xrotation Yrotation
                                    JOINT LeftFinger22
                                    {
                                        OFFSET   2.788150   0.000016   0.000000
                                        CHANNELS 3 Zrotation Xrotation Yrotation
                                        End Site
                                        {
                                            OFFSET   2.727660   0.000000   0.000000
                                        }
                                    }
                                }
                            }
                            JOINT LeftFinger3
                            {
                                OFFSET   7.899780   0.000015  -1.078090
                                CHANNELS 3 Zrotation Xrotation Yrotation
                                JOINT LeftFinger31
                                {
                                    OFFSET   4.646930   0.000000   0.000000
                                    CHANNELS 3 Zrotation Xrotation Yrotation
                                    JOINT LeftFinger32
                                    {
                                        OFFSET   2.323470   0.000000   0.000000
                                        CHANNELS 3 Zrotation Xrotation Yrotation
                                        End Site
                                        {
                                            OFFSET   2.273050   0.000000   0.000000
                                        }
                                    }
                                }
                            }
                            JOINT LeftFinger4
                            {
                                OFFSET   7.435090   0.000000  -3.252850
                                CHANNELS 3 Zrotation Xrotation Yrotation
                                JOINT LeftFinger41
                                {
                                    OFFSET   3.717550   0.000000   0.000000
                                    CHANNELS 3 Zrotation Xrotation Yrotation
                                    JOINT LeftFinger42
                                    {
                                        OFFSET   1.858770   0.000000   0.000000
                                        CHANNELS 3 Zrotation Xrotation Yrotation
                                        End Site
                                        {
                                            OFFSET   1.818440   0.000000   0.000000
                                        }
                                    }
                                }
                            }
                        }
                    }
                }
            }
            JOINT RightCollar
            {
                OFFSET  -3.911910  19.017000  -0.467062
                CHANNELS 3 Zrotation Xrotation Yrotation
                JOINT RightShoulder
                {
                    OFFSET -10.383700   0.000014   0.000000
                    CHANNELS 3 Zrotation Xrotation Yrotation
                    JOINT RightElbow
                    {
                        OFFSET -26.662100   0.001225   0.001091
                        CHANNELS 3 Zrotation Xrotation Yrotation
                        JOINT RightWrist
                        {
                            OFFSET -28.869000  -0.000020  -0.000085
                            CHANNELS 3 Zrotation Xrotation Yrotation
                            JOINT RightFinger0
                            {
                                OFFSET  -2.044650  -2.323490   3.252850
                                CHANNELS 3 Zrotation Xrotation Yrotation
                                JOINT RightFinger01
                                {
                                    OFFSET  -3.088130   0.000000   0.000000
                                    CHANNELS 3 Zrotation Xrotation Yrotation
                                    JOINT RightFinger02
                                    {
                                        OFFSET  -2.639460   0.000000   0.000000
                                        CHANNELS 3 Zrotation Xrotation Yrotation
                                        End Site
                                        {
                                            OFFSET  -2.582190   0.000000   0.000000
                                        }
                                    }
                                }
                            }
                            JOINT RightFinger1
                            {
                                OFFSET  -8.364480   0.000000   3.252850
                                CHANNELS 3 Zrotation Xrotation Yrotation
                                JOINT RightFinger11
                                {
                                    OFFSET  -4.646930   0.000000   0.000000
                                    CHANNELS 3 Zrotation Xrotation Yrotation
                                    JOINT RightFinger12
                                    {
                                        OFFSET  -2.323470   0.000000   0.000000
                                        CHANNELS 3 Zrotation Xrotation Yrotation
                                        End Site
                                        {
                                            OFFSET  -2.273050   0.000000   0.000000
                                        }
                                    }
                                }
                            }
                            JOINT RightFinger2
                            {
                                OFFSET  -8.364480   0.000000   1.078090
                                CHANNELS 3 Zrotation Xrotation Yrotation
                                JOINT RightFinger21
                                {
                                    OFFSET  -5.111620   0.000000   0.000000
                                    CHANNELS 3 Zrotation Xrotation Yrotation
                                    JOINT RightFinger22
                                    {
                                        OFFSET  -2.788160   0.000000   0.000000
                                        CHANNELS 3 Zrotation Xrotation Yrotation
                                        End Site
                                        {
                                            OFFSET  -2.727660   0.000000   0.000000
                                        }
                                    }
                                }
                            }
                            JOINT RightFinger3
                            {
                                OFFSET  -7.899780   0.000000  -1.078090
                                CHANNELS 3 Zrotation Xrotation Yrotation
                                JOINT RightFinger31
                                {
                                    OFFSET  -4.646930   0.000000   0.000000
                                    CHANNELS 3 Zrotation Xrotation Yrotation
                                    JOINT RightFinger32
                                    {
                                        OFFSET  -2.323470   0.000000   0.000000
                                        CHANNELS 3 Zrotation Xrotation Yrotation
                                        End Site
                                        {
                                            OFFSET  -2.273050   0.000000   0.000000
                                        }
                                    }
                                }
                            }
                            JOINT RightFinger4
                            {
                                OFFSET  -7.435090   0.000000  -3.252850
                                CHANNELS 3 Zrotation Xrotation Yrotation
                                JOINT RightFinger41
                                {
                                    OFFSET  -3.717550   0.000000   0.000000
                                    CHANNELS 3 Zrotation Xrotation Yrotation
                                    JOINT RightFinger42
                                    {
                                        OFFSET  -1.858760   0.000000   0.000000
                                        CHANNELS 3 Zrotation Xrotation Yrotation
                                        End Site
                                        {
                                            OFFSET  -1.818440   0.000000   0.000000
                                        }
                                    }
                                }
                            }
                        }
                    }
                }
            }
        }
    }
    JOINT LeftHip
    {
        OFFSET   9.783030   0.000000   0.000000
        CHANNELS 3 Zrotation Xrotation Yrotation
        JOINT LeftKnee
        {
            OFFSET   0.000063 -41.789100   0.000608
            CHANNELS 3 Zrotation Xrotation Yrotation
            JOINT LeftAnkle
            {
                OFFSET   0.000048 -41.133200  -0.000184
                CHANNELS 3 Zrotation Xrotation Yrotation
                JOINT LeftToe
                {
                    OFFSET   0.000000  -6.358960  14.674500
                    CHANNELS 3 Zrotation Xrotation Yrotation
                    End Site
                    {
                        OFFSET   0.000000   0.000000   3.913200
                    }
                }
            }
        }
    }
    JOINT RightHip
    {
        OFFSET  -9.783030   0.000000   0.000000
        CHANNELS 3 Zrotation Xrotation Yrotation
        JOINT RightKnee
        {
            OFFSET   0.000071 -41.789100   0.001239
            CHANNELS 3 Zrotation Xrotation Yrotation
            JOINT RightAnkle
            {
                OFFSET   0.000037 -41.133200  -0.000166
                CHANNELS 3 Zrotation Xrotation Yrotation
                JOINT RightToe
                {
                    OFFSET   0.000000  -6.358960  14.674500
                    CHANNELS 3 Zrotation Xrotation Yrotation
                    End Site
                    {
                        OFFSET   0.000000   0.000000   3.913200
                    }
                }
            }
        }
    }
}
MOTION
Frames: 5
Frame Time:   0.016667
 -2.905890  89.410700  -0.038615  -3.926300 -14.488400  -3.165720   1.779810   7.647290   1.743960   3.367430  15.342400   3.289770   3.390300  -0.357539   0.027969   5.570360  -0.717455  -9.612250  -7.447930  -6.204820  -5.319070 -23.149700  35.305900 -82.288700  40.500100   8.802240 -75.134500  49.859700  52.891600  -6.433080  45.477900  31.862300 -69.809200 -13.506300  -0.018620   0.009576  -1.753150  -0.010023   0.003677  17.114400  -7.807360 -24.891400   0.000000   0.001323  -0.000881  -0.000000   0.000930   0.006415  16.975800  -5.372360 -17.852500  -0.000305   0.005924  -0.000063  -0.000000   0.003914   0.000676  20.070500  -1.463410  -5.230940   0.000000   0.008747  -0.000077  -0.000000   0.005853   0.001567   8.587980   1.141100   5.997840   0.000000   0.013168  -0.001178   0.540126   0.008752  -0.005774   9.532310  -3.310720  10.761800  33.578500  27.582100  63.013400 -34.934100   3.528040  58.521800 -74.606500  27.176100  36.886200 -50.413600  43.543900  87.520400  10.548500  -0.085683   0.016159   0.274170  -0.038318   0.106274   0.536412   0.179187  18.866500   0.672591   0.046842  -0.009084   0.470809   0.032960  -0.006285   1.444770   0.149643   7.548990   1.476710  -0.049707   0.010334   0.983481  -0.032959   0.007581  -4.241510  -0.186927   2.015690   0.078373  -0.006770  -0.001062   0.052208  -0.004501  -0.002058   4.468780  -0.495461  -7.756210   6.764000   0.105431  -0.025091   4.504840   0.069125  -0.021157   4.082070  18.011900   2.825700   1.459240   0.087310   7.725250  -2.864410  -4.265740   1.558860  -0.000000   0.000000  -0.000000   5.868700  15.895700  -7.453800  -1.368370   4.302080  -8.073080  -0.258462  -6.891400   0.291478  -0.000000   0.000000   0.000000
 -2.907550  89.427400  -0.010435  -3.909950 -14.468300  -3.165500   1.766310   7.625250   1.712010   3.346680  15.297100   3.225220   3.407600  -0.322010   0.027981   5.602420  -0.645964  -9.602620  -7.461230  -6.204440  -5.423730 -22.169100  34.923800 -82.456600  40.771700   8.822850 -74.713900  54.735100  52.071000 -14.473100  42.375400  29.260300 -67.575500 -17.765500  -0.016260   0.028910  -3.882770  -0.009716   0.013606  15.129700  -6.439010 -22.341900   0.000000   0.001287  -0.000841  -0.000000   0.000922   0.006524  14.144200  -4.236150 -15.247200  -0.000295   0.005875  -0.000031  -0.000000   0.003898   0.000997  17.012000  -0.675782  -1.646310   0.000000   0.008662  -0.000046  -0.000000   0.005800   0.001572   4.942210   0.594977  10.028700  -0.710081   0.021251  -0.001149  -0.169094   0.014101  -0.005129   9.448040  -3.151600  10.779400  32.176100  27.409200  63.485800 -36.401000   4.710030  57.939500 -77.426800  24.841800  47.374200 -48.473300  42.194200  86.219300  13.832900  -0.029147   0.006477   1.916370  -0.012989   0.057031  -0.386013   0.007166  22.010800   0.108293   0.049016   0.006895  -0.100956   0.034473   0.004607   1.582640   0.338522   8.292260   1.582020  -0.011743   0.005825   1.053610  -0.007715   0.003955  -3.700920  -0.081985   2.751110   0.039187   0.018155  -0.001831  -0.243769   0.012095  -0.002596   2.720570  -0.169088  -8.346600   4.105060   0.122164  -0.004113   2.733990   0.081196  -0.007854   4.079290  18.009500   2.825980   1.432810   0.044366   7.730200  -2.859890  -4.247910   1.555120   0.000000   0.000000  -0.000000   5.850550  15.885500  -7.451520  -1.368960   4.290240  -8.072730  -0.257242  -6.891090   0.292289  -0.000000   0.000000   0.000000
 -2.911020  89.442400   0.009081  -3.894070 -14.427500  -3.165350   1.738980   7.602900   1.686840   3.293460  15.251000   3.180580   3.446010  -0.306078   0.028019   5.661610  -0.613834  -9.599120  -7.473720  -6.203960  -5.536160 -20.965700  34.603500 -82.769700  41.416000   8.691910 -74.556400  56.153800  51.418500 -17.875000  39.176500  26.514100 -65.200100 -23.659500  -0.011378   0.048245  -6.829750  -0.008911   0.023535  11.858200  -4.185770 -17.865800   0.000000   0.001259  -0.000801  -0.000000   0.000911   0.006634  11.256100  -2.386050 -10.349000  -0.000285   0.005805   0.000000  -0.000000   0.003877   0.001323  11.873700   0.452796   4.309740   0.000000   0.008555   0.000000  -0.000000   0.005734   0.001577  -0.199458  -0.305831  16.365500  -2.187850   0.025905  -0.001119  -1.457110   0.017236  -0.004313   9.312240  -2.997460  10.787200  30.249000  27.270900  64.337000 -36.961800   5.230760  57.250300 -78.838200  21.607400  55.647300 -45.060500  40.024700  83.788300  19.221300   0.051173  -0.022438   4.610640   0.022119  -0.015082  -0.705214  -0.070786  23.270800   0.000057   0.064236   0.009177  -0.314191   0.045067   0.006163   1.893790   0.435123   8.398520   1.916710   0.046531  -0.001361   1.276510   0.030968  -0.002038  -2.639010   0.022856   2.856170   0.000002   0.056366  -0.002363  -0.539745   0.037535  -0.003098   1.618420  -0.008216 -10.195100   2.435090   0.165619  -0.001060   1.621780   0.110498  -0.005954   4.076940  18.003800   2.828080   1.412870   0.001424   7.732460  -2.856950  -4.230080   1.554550   0.000000   0.000000   0.000000   5.827800  15.859300  -7.450280  -1.369130   4.270150  -8.070940  -0.256268  -6.888920   0.297963  -0.000000   0.000000  -0.000000
 -2.916560  89.452400   0.016493  -3.882550 -14.367000  -3.174270   1.713040   7.572430   1.678180   3.241410  15.189000   3.170600   3.500640  -0.313519   0.028084   5.751000  -0.628580  -9.666890  -7.435800  -6.181310  -5.648220 -19.813300  34.458100 -83.244700  42.055800   8.610580 -74.891100  53.650700  51.753500 -14.634200  36.475600  24.586600 -62.370400 -27.330200   0.001236   0.034686  -8.665110  -0.002053   0.017558   9.142380  -2.427680 -13.334500   0.000000   0.001262  -0.000774  -0.000000   0.000894   0.006749   9.245970  -1.032930  -4.706680  -0.000304   0.005729   0.000000  -0.000000   0.003850   0.001677   7.112470   0.973260   9.676070  -0.000000   0.008431   0.000072  -0.000000   0.005654   0.001574  -2.870320  -1.208920  20.980700  -4.548520   0.011429  -0.000908  -3.063070   0.007562  -0.003391   9.157610  -2.852010  10.766000  27.881400  27.288700  65.509500 -37.219600   5.225370  56.394500 -80.290900  18.938600  60.723100 -42.493300  38.275400  81.131500  23.502400   0.089774  -0.089685   6.751170   0.035900  -0.057319  -0.080495   0.196867  20.709300   0.306698   0.122156   0.002802   0.037936   0.085288   0.000077   2.496260   0.268580   4.257800   2.477590   0.089805  -0.007562   1.650060   0.059479  -0.007882  -1.438660   0.022506  -1.763640   0.000003   0.084586  -0.002300  -0.424155   0.056308  -0.003555   1.882990  -0.222296 -13.635000   2.822590   0.255776  -0.022400   1.879860   0.167356  -0.026916   4.069730  17.938000   2.844780   1.403500   0.041948   7.720920  -2.859840  -4.248130   1.560410  -0.000000   0.000000  -0.000000   5.805420  15.815900  -7.467700  -1.365960   4.245240  -8.052490  -0.253446  -6.878460   0.318774  -0.000000   0.000000   0.000000
 -2.920300  89.456600   0.018539  -3.875000 -14.300100  -3.189490   1.688420   7.544860   1.676850   3.193490  15.133400   3.168470   3.559150  -0.332354   0.028171   5.847710  -0.666136  -9.805120  -7.351480  -6.143640  -5.711040 -18.672400  34.464900 -83.835800  42.529200   8.525930 -75.224500  48.709400  52.254900  -7.875170  35.584100  23.771300 -60.364400 -29.057100   0.010243   0.014878  -9.528540   0.003971   0.008092   7.642020  -1.212850  -9.246400   0.000000   0.001265  -0.000748  -0.000000   0.000878   0.006863   8.273360   0.056219   0.609359  -0.000323   0.005642  -0.000000  -0.000000   0.003815   0.002034   4.308610   1.188760  13.755900  -0.000000   0.008286   0.000167  -0.000000   0.005561   0.001570  -3.919580  -1.721420  24.452900  -6.141500  -0.008548  -0.000600  -4.090240  -0.005776  -0.002434   9.007750  -2.742640  10.722500  25.942400  27.434900  66.532000 -37.510800   5.167340  55.886800 -80.830900  17.763500  62.757600 -40.456500  36.821400  77.911400  27.380600   0.104590  -0.137701   8.690260   0.039903  -0.076686   1.398400   0.479392  15.707300   1.200170   0.167030  -0.007706   0.840122   0.116428  -0.009466   3.347200  -0.106028  -2.390470   3.311770   0.112769  -0.011085   2.205630   0.074551  -0.011359  -0.054940   0.019709  -8.670220   0.000004   0.099520  -0.002236  -0.000502   0.066240  -0.003971   2.950980  -0.915265 -17.821300   4.509370   0.319210  -0.053391   3.003250   0.206981  -0.056937   4.057350  17.848100   2.865350   1.397470   0.082474   7.709370  -2.862220  -4.266160   1.573270  -0.000000   0.000000   0.000000   5.784380  15.767500  -7.494260  -1.360380   4.217380  -8.026400  -0.249962  -6.861260   0.347020   0.000000   0.000000   0.000000
